<?xml version="1.0" encoding="UTF-8"?>
<svg version="1.1" xmlns="http://www.w3.org/2000/svg" width="256" height="256">
<path d="M0 0 C5.42931765 3.24029931 8.97439181 4.22625627 15.16821289 2.88574219 C20.73489998 0.72598111 25.94010559 -2.25322252 31.16821289 -5.11425781 C43.14626124 -11.48408699 52.0853429 -14.71372653 65.63305664 -11.53613281 C72.75900449 -9.18006578 77.88448297 -4.49372932 83.38305664 0.42480469 C86.10312949 2.94003836 86.10312949 2.94003836 89.16821289 4.88574219 C89.60571289 7.26074219 89.60571289 7.26074219 89.16821289 9.88574219 C87.23071289 12.01074219 87.23071289 12.01074219 85.16821289 13.88574219 C84.83821289 14.87574219 84.50821289 15.86574219 84.16821289 16.88574219 C83.00805664 16.96050781 81.84790039 17.03527344 80.65258789 17.11230469 C68.16769048 18.09122349 57.60404527 20.36355655 48.76586914 29.97949219 C47.43296771 31.56984891 46.16488225 33.21424238 44.91430664 34.87011719 C42.20174922 38.13108185 38.98808509 39.89721061 35.16821289 41.63574219 C34.56493164 41.92578125 33.96165039 42.21582031 33.34008789 42.51464844 C29.99983149 44.10490094 26.61850352 45.55267535 23.16821289 46.88574219 C23.3874969 52.25820044 24.56168028 55.33976265 28.20727539 59.32324219 C31.19419073 61.70325441 34.46789094 62.76591355 38.09399414 63.86621094 C40.16821289 64.88574219 40.16821289 64.88574219 40.96118164 66.99902344 C41.02950195 67.62164062 41.09782227 68.24425781 41.16821289 68.88574219 C37.38852207 72.1057977 34.82430425 72.58567259 29.94555664 72.42089844 C20.53623979 70.60785145 12.82460695 62.30483165 6.16821289 55.88574219 C5.41411133 55.17804688 4.66000977 54.47035156 3.88305664 53.74121094 C2.16821289 51.88574219 2.16821289 51.88574219 2.16821289 49.88574219 C-11.63259156 44.33420695 -27.42659229 47.96024263 -40.83178711 52.88574219 C-41.90170898 53.27761719 -42.97163086 53.66949219 -44.07397461 54.07324219 C-48.25613626 55.4693185 -48.25613626 55.4693185 -51.83178711 57.88574219 C-50.29458008 58.34013672 -50.29458008 58.34013672 -48.72631836 58.80371094 C-47.36538683 59.226069 -46.00472358 59.64929222 -44.64428711 60.07324219 C-43.63398438 60.36811523 -43.63398438 60.36811523 -42.60327148 60.66894531 C-37.9075126 62.15784447 -35.02146655 63.95998288 -31.83178711 67.88574219 C-31.51928711 70.69824219 -31.51928711 70.69824219 -31.83178711 72.88574219 C-39.60635328 75.77778714 -47.41352258 76.46545688 -55.32788086 73.63574219 C-58.92936029 71.86975 -62.39689444 69.95106043 -65.83178711 67.88574219 C-66.48953125 67.49547852 -67.14727539 67.10521484 -67.82495117 66.703125 C-70.48493342 65.12237183 -73.14252369 63.54022155 -75.77099609 61.9074707 C-79.0383307 59.88534616 -82.20995065 58.17974425 -85.83178711 56.88574219 C-85.92459961 57.75199219 -85.92459961 57.75199219 -86.01928711 58.63574219 C-87.20692869 61.92459579 -88.92595904 62.96913219 -91.83178711 64.88574219 C-104.87413273 70.95070126 -120.37992066 70.32616412 -133.83178711 65.88574219 C-137.33277247 64.42446134 -140.74762517 62.86353326 -144.15209961 61.19042969 C-150.66750518 58.01820598 -157.57464832 58.00245031 -164.51928711 59.88574219 C-165.66397461 60.38074219 -165.66397461 60.38074219 -166.83178711 60.88574219 C-167.37437956 57.30463203 -166.7565822 55.74570546 -165.01928711 52.51074219 C-158.03722312 43.58381358 -146.79647078 39.26610522 -135.83178711 37.88574219 C-122.59674784 36.87463288 -107.84235978 36.41634707 -95.83178711 42.88574219 C-95.87819336 41.78617188 -95.92459961 40.68660156 -95.97241211 39.55371094 C-96.33838483 27.27483929 -95.0582112 17.73132658 -86.85913086 8.00683594 C-62.09447099 -17.90301051 -28.90747431 -17.58412805 0 0 Z " fill="#ffffff" transform="translate(166.831787109375,97.1142578125)"/>
</svg>
