<?xml version="1.0" standalone="no"?>
<!DOCTYPE svg PUBLIC "-//W3C//DTD SVG 20010904//EN"
 "http://www.w3.org/TR/2001/REC-SVG-20010904/DTD/svg10.dtd">
<svg version="1.0" xmlns="http://www.w3.org/2000/svg"
 width="512.000000pt" height="512.000000pt" viewBox="0 0 512.000000 512.000000"
 preserveAspectRatio="xMidYMid meet">

<g transform="translate(0.000000,512.000000) scale(0.100000,-0.100000)"
fill="#457B9D" stroke="none">
<path d="M3257 5110 c-582 -73 -1070 -418 -1323 -935 -283 -579 -210 -1257
192 -1771 l76 -97 -153 -153 c-135 -135 -155 -152 -169 -139 -30 27 -105 55
-150 55 -108 0 -62 41 -898 -793 -868 -867 -827 -820 -827 -962 0 -60 6 -91
22 -126 30 -66 86 -124 151 -156 48 -24 70 -28 137 -28 142 0 95 -40 962 827
834 836 793 790 793 898 0 45 -28 120 -55 150 -13 14 4 34 139 169 l153 153
101 -79 c769 -599 1865 -429 2420 375 197 286 305 664 289 1012 -21 438 -186
811 -497 1120 -247 247 -550 404 -895 466 -105 18 -370 26 -468 14z m458 -165
c116 -21 299 -82 406 -136 431 -216 738 -626 825 -1099 25 -136 25 -401 0
-535 -159 -850 -972 -1401 -1816 -1229 -582 118 -1066 602 -1184 1184 -96 471
37 972 349 1318 270 300 570 455 1000 516 62 9 334 -3 420 -19z m-1873 -3103
c70 -70 78 -82 78 -116 0 -34 -8 -47 -75 -115 l-74 -76 -118 118 -118 118 76
74 c68 67 81 75 115 75 34 0 46 -8 116 -78z m-292 -297 l115 -115 -620 -621
c-341 -341 -637 -629 -657 -640 -133 -69 -288 81 -222 214 14 28 1250 1277
1264 1277 3 0 57 -52 120 -115z"/>
<path d="M3278 4789 c-165 -20 -373 -89 -509 -170 -106 -62 -179 -119 -185
-146 -9 -35 14 -75 49 -87 31 -11 48 -4 175 79 147 95 327 157 518 177 350 36
718 -96 969 -349 328 -330 437 -814 283 -1253 -38 -107 -72 -173 -142 -280
-31 -46 -56 -95 -56 -107 0 -30 42 -73 70 -73 36 0 55 16 108 92 103 150 182
339 219 525 26 132 23 377 -5 510 -59 275 -180 500 -371 692 -246 247 -569
386 -921 396 -69 2 -159 0 -202 -6z"/>
<path d="M2388 4289 c-23 -13 -117 -157 -162 -247 -50 -99 -101 -257 -120
-367 -21 -117 -21 -345 -1 -461 99 -570 538 -1010 1109 -1109 130 -22 349 -20
481 5 120 24 248 66 350 117 92 46 232 139 245 163 16 30 12 68 -10 90 -32 32
-74 25 -143 -23 -138 -97 -291 -163 -457 -197 -91 -19 -127 -21 -275 -17 -221
7 -339 37 -524 132 -272 140 -482 387 -582 683 -42 124 -59 235 -59 389 0 260
69 480 217 690 48 69 55 111 23 143 -21 21 -64 26 -92 9z"/>
<path d="M2836 3899 c-19 -15 -26 -30 -26 -56 0 -29 10 -45 62 -99 l62 -65
-62 -62 c-69 -70 -80 -109 -42 -147 37 -37 75 -27 146 42 l64 61 64 -61 c70
-68 104 -78 147 -44 42 35 31 74 -42 148 l-63 64 63 64 c52 53 64 71 64 97 0
36 -40 79 -75 79 -11 0 -50 -29 -89 -67 l-69 -66 -69 66 c-38 37 -78 67 -89
67 -10 0 -31 -9 -46 -21z"/>
<path d="M3636 3899 c-19 -15 -26 -30 -26 -56 0 -29 10 -45 62 -99 l61 -64
-61 -64 c-69 -71 -79 -109 -42 -146 38 -38 77 -27 147 42 l62 62 65 -63 c59
-56 69 -62 102 -59 47 4 80 43 70 84 -4 15 -34 55 -66 89 l-59 61 59 59 c33
33 63 68 66 78 13 42 -34 97 -82 97 -9 0 -46 -29 -83 -65 l-67 -65 -50 51
c-49 51 -91 79 -117 79 -8 0 -26 -9 -41 -21z"/>
<path d="M3355 3110 c-125 -17 -250 -73 -338 -151 -39 -33 -47 -47 -47 -75 0
-80 73 -97 148 -35 189 157 472 153 660 -10 44 -38 92 -39 121 -3 32 41 26 63
-32 120 -119 114 -332 179 -512 154z"/>
</g>
</svg>
