<svg xmlns="http://www.w3.org/2000/svg" width="200" height="160" viewBox="0 0 200 160">
  <rect width="100%" height="100%" fill="#FFFFFF"/>
  <path fill="#457B9D" d="m87.18 60.48-2.6-4.12q1.36-1.2 2.98-2.28 1.62-1.08 3.5-1.88 1.88-.8 4.08-1.26 2.2-.46 4.76-.46 3.48 0 6.34.96t4.9 2.74q2.04 1.78 3.16 4.3 1.12 2.52 1.12 5.64 0 3.04-.88 5.26-.88 2.22-2.2 3.86-1.32 1.64-2.9 2.84-1.58 1.2-2.98 2.26-1.4 1.06-2.42 2.08t-1.22 2.3l-.92 5.84h-6.76l-.68-6.52q-.24-1.88.54-3.3t2.08-2.6q1.3-1.18 2.9-2.28 1.6-1.1 3-2.4 1.4-1.3 2.34-2.92.94-1.62.94-3.86 0-1.44-.54-2.58-.54-1.14-1.5-1.96-.96-.82-2.3-1.26-1.34-.44-2.9-.44-2.28 0-3.86.5t-2.68 1.12q-1.1.62-1.86 1.12-.76.5-1.36.5-1.44 0-2.08-1.2Zm4.96 43.04q0-1.24.46-2.36.46-1.12 1.26-1.92.8-.8 1.92-1.28 1.12-.48 2.4-.48 1.28 0 2.38.48 1.1.48 1.92 1.28.82.8 1.3 1.92.48 1.12.48 2.36 0 1.28-.48 2.38-.48 1.1-1.3 1.9-.82.8-1.92 1.26-1.1.46-2.38.46-1.28 0-2.4-.46-1.12-.46-1.92-1.26-.8-.8-1.26-1.9-.46-1.1-.46-2.38Z"/>
</svg>